<?xml version="1.0" standalone="no"?>
<!DOCTYPE svg PUBLIC "-//W3C//DTD SVG 20010904//EN"
 "http://www.w3.org/TR/2001/REC-SVG-20010904/DTD/svg10.dtd">
<svg version="1.0" xmlns="http://www.w3.org/2000/svg"
 width="700.000000pt" height="700.000000pt" viewBox="0 0 700.000000 700.000000"
 preserveAspectRatio="xMidYMid meet">
<metadata>
Created by potrace 1.11, written by Peter Selinger 2001-2013
</metadata>
<g transform="translate(0.000000,700.000000) scale(0.100000,-0.100000)"
fill="#000000" stroke="none">
<path d="M2388 5452 l-38 -3 -2 -564 -3 -564 -520 324 c-286 179 -522 325
-525 325 -3 0 -17 -21 -32 -48 -37 -66 -564 -1016 -598 -1077 -15 -27 -118
-214 -229 -414 -112 -200 -199 -367 -194 -371 4 -5 141 -85 303 -180 162 -95
347 -203 410 -240 63 -37 179 -105 258 -150 78 -46 141 -84 140 -85 -3 -3
-245 -147 -698 -415 -151 -90 -304 -180 -340 -201 -36 -22 -60 -40 -55 -40 31
-5 6625 -4 6625 1 0 3 -42 29 -92 59 -485 282 -1005 586 -1011 591 -5 4 244
155 552 335 l561 327 -27 47 c-15 25 -45 75 -68 111 -36 56 -162 260 -374 606
-31 49 -166 269 -301 487 -135 219 -276 449 -315 512 -38 63 -75 119 -81 125
-7 7 -70 -21 -215 -99 -112 -61 -375 -202 -584 -313 l-380 -204 -3 558 -2 558
-48 1 c-193 2 -2085 3 -2114 1z m202 -2314 c118 -36 215 -133 252 -253 31
-101 12 -231 -47 -320 -201 -302 -672 -175 -693 186 -15 263 236 462 488 387z
m2085 0 c83 -21 157 -78 209 -162 119 -189 50 -438 -149 -539 -323 -165 -666
175 -511 507 75 162 263 242 451 194z"/>
</g>
</svg>
