<?xml version="1.0" encoding="utf-8"?>
<!-- Generator: Adobe Illustrator 20.0.0, SVG Export Plug-In . SVG Version: 6.00 Build 0)  -->
<svg version="1.1" id="Layer_1" xmlns="http://www.w3.org/2000/svg" xmlns:xlink="http://www.w3.org/1999/xlink" x="0px" y="0px"
	 width="183.9px" height="183.9px" viewBox="0 0 183.9 183.9" style="enable-background:new 0 0 183.9 183.9;" xml:space="preserve"
	>
<style type="text/css">
	.st0{fill:#333333;}
	.st1{fill:#DFE5E4;}
	.st2{display:none;}
	.st3{display:inline;fill:#333333;}
</style>
<g>
	<g>
		<g>
			<g>
				<path class="st0" d="M181.2,138l-29.6-17.3l29.6-17.3l-30.7-49.8l-31,16.6V40.7H61.8v29.9L34.1,53.3L6.3,103.4l29.6,17.3
					L6.7,138H181.2z M119.9,100.9c5.8,0,10.1,4.7,10.1,10.1c0,5.8-4.7,10.1-10.1,10.1c-5.8,0-10.1-4.7-10.1-10.1
					S114.1,100.9,119.9,100.9z M65.1,100.9c5.8,0,10.1,4.7,10.1,10.1c0,5.8-4.7,10.1-10.1,10.1c-5.8,0-10.1-4.7-10.1-10.1
					S59.7,100.9,65.1,100.9z"/>
			</g>
		</g>
	</g>
	<g>
		<path class="st1" d="M181.2,138l-29.6-17.3l29.6-17.3l-30.7-49.8l-31,16.6V40.7H61.8v29.9L34.1,53.3L6.3,103.4l29.6,17.3L6.7,138
			H181.2z M119.9,100.9c5.8,0,10.1,4.7,10.1,10.1c0,5.8-4.7,10.1-10.1,10.1c-5.8,0-10.1-4.7-10.1-10.1S114.1,100.9,119.9,100.9z
			 M65.1,100.9c5.8,0,10.1,4.7,10.1,10.1c0,5.8-4.7,10.1-10.1,10.1c-5.8,0-10.1-4.7-10.1-10.1S59.7,100.9,65.1,100.9z"/>
	</g>
	<g>
		<path class="st0" d="M181.2,138l-29.6-17.3l29.6-17.3l-30.7-49.8l-31,16.6V40.7H61.8v29.9L34.1,53.3L6.3,103.4l29.6,17.3L6.7,138
			H181.2z M119.9,100.9c5.8,0,10.1,4.7,10.1,10.1c0,5.8-4.7,10.1-10.1,10.1c-5.8,0-10.1-4.7-10.1-10.1S114.1,100.9,119.9,100.9z
			 M65.1,100.9c5.8,0,10.1,4.7,10.1,10.1c0,5.8-4.7,10.1-10.1,10.1c-5.8,0-10.1-4.7-10.1-10.1S59.7,100.9,65.1,100.9z"/>
	</g>
	<g class="st2">
		<path class="st3" d="M10.2,178c-2.7-2.1-4.2-5.2-4.4-9.5c0-0.8,0-2.2,0-4.1s0-3.3,0-4.2c0.2-4.1,1.7-7.3,4.5-9.4
			c2.8-2.1,6.5-3.2,11-3.2c2.8,0,5.3,0.4,7.7,1.2c2.3,0.8,4.2,2.1,5.7,3.9s2.2,4,2.2,6.7c0,0.3-0.1,0.5-0.3,0.7s-0.4,0.3-0.7,0.3
			h-9.4c-0.5,0-0.9-0.1-1.1-0.3s-0.4-0.5-0.6-1.1c-0.3-0.9-0.8-1.6-1.3-1.9s-1.3-0.6-2.1-0.6c-1.1,0-1.9,0.3-2.5,0.9
			c-0.6,0.6-0.9,1.5-0.9,2.9c0,0.8,0,2.1,0,3.8s0,3,0,3.9c0,1.4,0.3,2.3,0.9,2.9s1.4,0.9,2.5,0.9c1.8,0,2.9-0.8,3.5-2.5
			c0.2-0.5,0.3-0.9,0.6-1.1c0.2-0.2,0.6-0.3,1.1-0.3H36c0.3,0,0.5,0.1,0.7,0.3s0.3,0.4,0.3,0.7c0,2.7-0.8,4.9-2.2,6.7
			c-1.5,1.8-3.4,3.1-5.7,3.9c-2.3,0.8-4.9,1.2-7.7,1.2C16.7,181.1,13,180.1,10.2,178z"/>
		<path class="st3" d="M43.3,180.3c-0.2-0.2-0.4-0.5-0.4-0.9v-29.9c0-0.3,0.1-0.6,0.4-0.9s0.5-0.4,0.9-0.4h7.3
			c0.9,0,1.5,0.4,1.9,1.1l7.8,12.8v-12.6c0-0.3,0.1-0.6,0.4-0.9s0.5-0.4,0.9-0.4h8.4c0.3,0,0.6,0.1,0.9,0.4s0.4,0.5,0.4,0.9v29.9
			c0,0.3-0.1,0.6-0.4,0.9s-0.5,0.4-0.9,0.4h-7.3c-0.5,0-0.9-0.1-1.2-0.3s-0.5-0.5-0.7-0.7l-7.8-11.8v11.6c0,0.3-0.1,0.6-0.4,0.9
			c-0.2,0.2-0.5,0.4-0.9,0.4h-8.4C43.8,180.6,43.5,180.5,43.3,180.3z"/>
		<path class="st3" d="M83,177.9c-2.7-2.1-4.2-5.2-4.4-9.3c0-0.8,0-2.2,0-4c0-1.9,0-3.3,0-4.1c0.1-2.7,0.8-4.9,2.1-6.9
			c1.3-1.9,3.1-3.4,5.4-4.4s4.9-1.5,8-1.5s5.7,0.5,8,1.5s4.1,2.4,5.4,4.4c1.3,1.9,2,4.2,2.1,6.9c0.1,1.7,0.1,3.1,0.1,4.1
			s0,2.4-0.1,4c-0.2,4.1-1.7,7.2-4.4,9.3c-2.7,2.1-6.4,3.2-11.1,3.2C89.5,181.1,85.8,180,83,177.9z M96.6,171.1
			c0.6-0.6,0.9-1.6,0.9-2.8c0.1-1.8,0.1-3.1,0.1-3.9c0-0.9,0-2.2-0.1-3.8c0-1.3-0.4-2.2-1-2.8s-1.4-0.9-2.5-0.9s-1.8,0.3-2.5,0.9
			c-0.6,0.6-0.9,1.6-1,2.8c0,0.8,0,2.1,0,3.8s0,3,0,3.9c0,1.3,0.3,2.2,0.9,2.8s1.4,0.9,2.5,0.9C95.2,172.1,96,171.8,96.6,171.1z"/>
		<path class="st3" d="M123.4,180.3c-0.2-0.2-0.4-0.5-0.4-0.9v-21.2h-7.7c-0.3,0-0.6-0.1-0.9-0.4c-0.2-0.2-0.4-0.5-0.4-0.9v-7.5
			c0-0.3,0.1-0.6,0.4-0.9s0.5-0.4,0.9-0.4h27.1c0.3,0,0.6,0.1,0.9,0.4c0.2,0.2,0.4,0.5,0.4,0.9v7.5c0,0.3-0.1,0.6-0.4,0.9
			c-0.2,0.2-0.5,0.4-0.9,0.4h-7.7v21.2c0,0.3-0.1,0.6-0.4,0.9s-0.5,0.4-0.9,0.4h-9.3C123.9,180.6,123.6,180.5,123.4,180.3z"/>
		<path class="st3" d="M156.9,180.2c-0.3-0.3-0.6-0.7-0.7-1.1l-8.7-29.5v-0.3c0-0.3,0.1-0.5,0.3-0.7s0.4-0.3,0.7-0.3h8.6
			c0.6,0,1,0.2,1.4,0.5c0.3,0.3,0.6,0.7,0.7,1.1l4.4,17.2l4.4-17.2c0.1-0.4,0.4-0.8,0.7-1.1s0.8-0.5,1.4-0.5h8.6
			c0.3,0,0.5,0.1,0.7,0.3s0.3,0.4,0.3,0.7v0.3l-8.7,29.5c-0.1,0.4-0.4,0.8-0.7,1.1s-0.8,0.5-1.4,0.5h-10.6
			C157.7,180.6,157.3,180.5,156.9,180.2z"/>
	</g>
</g>
</svg>
