<?xml version="1.0" encoding="utf-8"?>
<!-- Generator: Adobe Illustrator 20.0.0, SVG Export Plug-In . SVG Version: 6.00 Build 0)  -->
<svg version="1.1" id="Layer_1" xmlns="http://www.w3.org/2000/svg" xmlns:xlink="http://www.w3.org/1999/xlink" x="0px" y="0px"
	 width="183.9px" height="183.9px" viewBox="0 0 183.9 183.9" style="enable-background:new 0 0 183.9 183.9;" xml:space="preserve"
	>
<style type="text/css">
	.st0{fill:#333333;}
</style>
<g>
	<path class="st0" d="M89.1,69.1c-2.7,0-4.8,2.2-4.8,4.8c0,2.5,2,4.8,4.8,4.8c2.5,0,4.8-2,4.8-4.8C93.8,71.4,91.8,69.1,89.1,69.1z"
		/>
	<path class="st0" d="M63.2,69.1c-2.5,0-4.8,2.2-4.8,4.8c0,2.5,2,4.8,4.8,4.8c2.5,0,4.8-2,4.8-4.8C68,71.4,65.9,69.1,63.2,69.1z"/>
	<path class="st0" d="M165.6,97.7h-25.7V20.6c0-2.8-2.3-5.1-5.1-5.1H21.7c-2.8,0-5.1,2.3-5.1,5.1v131.9c0,11.3,9.2,20.6,20.6,20.6
		h113.1c11.3,0,20.6-9.2,20.6-20.6v-49.7C170.8,100,168.5,97.7,165.6,97.7z M35.6,86.6l13.8-8.2l-14-8.2l13.1-23.6l13.1,8.2V40.7
		h27.2v13.9l14.6-7.8L118,70.3l-14,8.2l14,8.2H35.6z M73.1,152.5H42.3c-2.8,0-5.1-2.3-5.1-5.1s2.3-5.1,5.1-5.1h30.8
		c2.8,0,5.1,2.3,5.1,5.1S75.9,152.5,73.1,152.5z M73.1,132H42.3c-2.8,0-5.1-2.3-5.1-5.1c0-2.8,2.3-5.1,5.1-5.1h30.8
		c2.8,0,5.1,2.3,5.1,5.1S75.9,132,73.1,132z M114.2,152.5H93.7c-2.8,0-5.1-2.3-5.1-5.1s2.3-5.1,5.1-5.1h20.6c2.8,0,5.1,2.3,5.1,5.1
		S117.1,152.5,114.2,152.5z M114.2,132H93.7c-2.8,0-5.1-2.3-5.1-5.1c0-2.8,2.3-5.1,5.1-5.1h20.6c2.8,0,5.1,2.3,5.1,5.1
		S117.1,132,114.2,132z M114.2,111.4h-72c-2.8,0-5.1-2.3-5.1-5.1c0-2.8,2.3-5.1,5.1-5.1h72c2.8,0,5.1,2.3,5.1,5.1
		C119.4,109.1,117.1,111.4,114.2,111.4z M160.5,152.5L160.5,152.5c0,5.7-4.6,10.3-10.3,10.3c-5.7,0-10.3-4.6-10.3-10.3
		c0-3.5,0-42.5,0-44.5h20.6V152.5z"/>
</g>
</svg>
